# Blender v2.90.1 OBJ File: ''
# www.blender.org
mtllib untitled.mtl.mtl
o Circle
v 0.000000 0.000000 -1.000000
v -0.866025 0.000000 -0.500000
v -0.866025 0.000000 0.500000
v 0.000000 0.000000 1.000000
v 0.866025 0.000000 0.500000
v 0.866025 0.000000 -0.500000
v -0.866025 0.273767 -0.500000
v 0.000000 0.273767 -1.000000
v -0.866025 0.273767 0.500000
v 0.000000 0.273767 1.000000
v 0.866025 0.273767 0.500000
v 0.866025 0.273767 -0.500000
v -0.866025 0.480421 -0.500000
v 0.000000 0.480421 -1.000000
v -0.866025 0.480421 0.500000
v 0.000000 0.480421 1.000000
v 0.866025 0.480421 0.500000
v 0.866025 0.480421 -0.500000
vt 0.000000 0.000000
vt 0.000000 0.000000
vt 0.000000 0.000000
vt 0.000000 0.000000
vt 0.000000 0.000000
vt 0.000000 0.000000
vt 0.000000 0.000000
vt 0.000000 0.000000
vt 0.000000 0.000000
vt 0.000000 0.000000
vt 0.000000 0.000000
vt 0.000000 0.000000
vt 0.000000 0.000000
vt 0.000000 0.000000
vt 0.000000 0.000000
vt 0.000000 0.000000
vt 0.000000 0.000000
vt 0.000000 0.000000
vn 0.5000 0.0000 0.8660
vn 0.0000 1.0000 0.0000
vn -1.0000 0.0000 0.0000
vn 1.0000 0.0000 0.0000
vn -0.5000 0.0000 0.8660
vn -0.5000 0.0000 -0.8660
vn 0.5000 0.0000 -0.8660
vn 0.0000 -1.0000 0.0000
usemtl top
s off
f 10/1/1 11/2/1 17/3/1 16/4/1
f 13/5/2 15/6/2 16/4/2 17/3/2 18/7/2 14/8/2
f 7/9/3 9/10/3 15/6/3 13/5/3
f 11/2/4 12/11/4 18/7/4 17/3/4
f 9/10/5 10/1/5 16/4/5 15/6/5
f 8/12/6 7/9/6 13/5/6 14/8/6
f 12/11/7 8/12/7 14/8/7 18/7/7
usemtl bottom
f 2/13/8 1/14/8 6/15/8 5/16/8 4/17/8 3/18/8
f 6/15/7 1/14/7 8/12/7 12/11/7
f 4/17/1 5/16/1 11/2/1 10/1/1
f 2/13/3 3/18/3 9/10/3 7/9/3
f 5/16/4 6/15/4 12/11/4 11/2/4
f 3/18/5 4/17/5 10/1/5 9/10/5
f 1/14/6 2/13/6 7/9/6 8/12/6
